<?xml version="1.0" encoding="UTF-8" standalone="no"?>
<!DOCTYPE svg PUBLIC "-//W3C//DTD SVG 1.1//EN" "http://www.w3.org/Graphics/SVG/1.1/DTD/svg11.dtd">
<svg version="1.1" xmlns="http://www.w3.org/2000/svg" xmlns:xlink="http://www.w3.org/1999/xlink" preserveAspectRatio="xMidYMid meet" viewBox="0 0 640 640" width="640" height="640"><defs><path d="M217.74 28.59L224.84 29.31L231.86 30.31L238.79 31.59L245.62 33.13L252.34 34.93L258.96 36.99L265.47 39.31L271.85 41.86L278.11 44.66L284.24 47.69L290.23 50.94L296.08 54.42L301.78 58.12L307.33 62.02L312.72 66.13L317.94 70.44L322.99 74.95L327.87 79.64L332.56 84.51L337.06 89.57L341.37 94.79L345.48 100.17L349.39 105.72L353.09 111.42L356.56 117.27L359.82 123.26L362.85 129.39L365.64 135.65L368.2 142.04L370.51 148.54L372.57 155.16L374.38 161.89L375.92 168.72L377.19 175.65L378.19 182.66L378.92 189.77L379.35 196.95L379.5 204.21L379.35 211.47L378.92 218.65L378.19 225.76L377.19 232.78L375.92 239.71L374.38 246.54L372.57 253.26L370.51 259.88L368.2 266.39L365.64 272.77L362.85 279.03L359.82 285.16L356.56 291.15L353.09 297L349.39 302.7L345.48 308.25L341.37 313.64L337.06 318.86L332.56 323.91L327.87 328.78L322.99 333.48L317.94 337.98L312.72 342.29L307.33 346.4L301.78 350.31L296.08 354L290.23 357.48L284.24 360.74L278.11 363.77L271.85 366.56L265.47 369.12L258.96 371.43L252.34 373.49L245.62 375.29L238.79 376.84L231.86 378.11L224.84 379.11L217.74 379.83L210.55 380.27L203.29 380.42L196.04 380.27L188.85 379.83L181.75 379.11L174.73 378.11L167.8 376.84L160.97 375.29L154.24 373.49L147.62 371.43L141.12 369.12L134.73 366.56L128.47 363.77L122.35 360.74L116.35 357.48L110.5 354L104.8 350.31L99.26 346.4L93.87 342.29L88.65 337.98L83.6 333.48L78.72 328.78L74.03 323.91L69.52 318.86L65.21 313.64L61.1 308.25L57.2 302.7L53.5 297L50.02 291.15L46.77 285.16L43.74 279.03L40.94 272.77L38.39 266.39L36.08 259.88L34.02 253.26L32.21 246.54L30.67 239.71L29.39 232.78L28.39 225.76L27.67 218.65L27.23 211.47L27.09 204.21L27.23 196.95L27.67 189.77L28.39 182.66L29.39 175.65L30.67 168.72L32.21 161.89L34.02 155.16L36.08 148.54L38.39 142.04L40.94 135.65L43.74 129.39L46.77 123.26L50.02 117.27L53.5 111.42L57.2 105.72L61.1 100.17L65.21 94.79L69.52 89.57L74.03 84.51L78.72 79.64L83.6 74.95L88.65 70.44L93.87 66.13L99.26 62.02L104.8 58.12L110.5 54.42L116.35 50.94L122.35 47.69L128.47 44.66L134.73 41.86L141.12 39.31L147.62 36.99L154.24 34.93L160.97 33.13L167.8 31.59L174.73 30.31L181.75 29.31L188.85 28.59L196.04 28.15L203.29 28.01L210.55 28.15L217.74 28.59ZM191.63 62.39L185.89 62.97L180.22 63.78L174.63 64.81L169.11 66.05L163.68 67.51L158.34 69.17L153.08 71.04L147.93 73.1L142.87 75.36L137.92 77.81L133.08 80.44L128.36 83.25L123.76 86.23L119.28 89.38L114.93 92.7L110.71 96.18L106.63 99.82L102.69 103.61L98.9 107.55L95.27 111.63L91.79 115.84L88.47 120.19L85.31 124.67L82.33 129.28L79.52 134L76.89 138.84L74.44 143.79L72.18 148.85L70.12 154L68.25 159.25L66.59 164.6L65.13 170.03L63.89 175.55L62.86 181.14L62.05 186.81L61.47 192.55L61.11 198.35L60.99 204.21L61.11 210.07L61.47 215.88L62.05 221.61L62.86 227.28L63.89 232.88L65.13 238.39L66.59 243.82L68.25 249.17L70.12 254.42L72.18 259.58L74.44 264.63L76.89 269.58L79.52 274.42L82.33 279.15L85.31 283.75L88.47 288.23L91.79 292.58L95.27 296.8L98.9 300.88L102.69 304.81L106.63 308.6L110.71 312.24L114.93 315.72L119.28 319.04L123.76 322.19L128.36 325.18L133.08 327.99L137.92 330.62L142.87 333.06L147.93 335.32L153.08 337.39L158.34 339.25L163.68 340.92L169.11 342.37L174.63 343.62L180.22 344.65L185.89 345.46L191.63 346.04L197.43 346.39L203.29 346.51L209.16 346.39L214.96 346.04L220.69 345.46L226.36 344.65L231.96 343.62L237.47 342.37L242.91 340.92L248.25 339.25L253.5 337.39L258.66 335.32L263.72 333.06L268.67 330.62L273.5 327.99L278.23 325.18L282.83 322.19L287.31 319.04L291.66 315.72L295.88 312.24L299.96 308.6L303.89 304.81L307.68 300.88L311.32 296.8L314.8 292.58L318.12 288.23L321.28 283.75L324.26 279.15L327.07 274.42L329.7 269.58L332.15 264.63L334.4 259.58L336.47 254.42L338.33 249.17L340 243.82L341.45 238.39L342.7 232.88L343.73 227.28L344.54 221.61L345.12 215.88L345.47 210.07L345.59 204.21L345.47 198.35L345.12 192.55L344.54 186.81L343.73 181.14L342.7 175.55L341.45 170.03L340 164.6L338.33 159.25L336.47 154L334.4 148.85L332.15 143.79L329.7 138.84L327.07 134L324.26 129.28L321.28 124.67L318.12 120.19L314.8 115.84L311.32 111.63L307.68 107.55L303.89 103.61L299.96 99.82L295.88 96.18L291.66 92.7L287.31 89.38L282.83 86.23L278.23 83.25L273.5 80.44L268.67 77.81L263.72 75.36L258.66 73.1L253.5 71.04L248.25 69.17L242.91 67.51L237.47 66.05L231.96 64.81L226.36 63.78L220.69 62.97L214.96 62.39L209.16 62.03L203.29 61.91L197.43 62.03L191.63 62.39Z" id="c3JaNPS6Tt"></path><path d="M321.39 302.45L517.91 492.76L494.32 517.12L297.8 326.81L321.39 302.45Z" id="c43SHe2LL0"></path><path d="M622.54 543.02C631.38 551.53 631.65 565.6 623.14 574.44C611.57 586.46 592.26 606.53 580.69 618.55C572.18 627.39 558.12 627.66 549.28 619.15C515.49 586.64 430.15 504.51 396.37 471.99C387.53 463.48 387.26 449.42 395.77 440.58C407.34 428.55 426.65 408.49 438.22 396.47C446.73 387.62 460.8 387.36 469.64 395.86C503.42 428.38 588.76 510.51 622.54 543.02Z" id="fjjhtt45I"></path></defs><g><g><g><use xlink:href="#c3JaNPS6Tt" opacity="1" fill="#64cbce" fill-opacity="1"></use><g><use xlink:href="#c3JaNPS6Tt" opacity="1" fill-opacity="0" stroke="#64cbce" stroke-width="27" stroke-opacity="1"></use></g></g><g><use xlink:href="#c43SHe2LL0" opacity="1" fill="#64cbce" fill-opacity="1"></use><g><use xlink:href="#c43SHe2LL0" opacity="1" fill-opacity="0" stroke="#64cbce" stroke-width="14" stroke-opacity="1"></use></g></g><g><use xlink:href="#fjjhtt45I" opacity="1" fill="#64cbce" fill-opacity="1"></use></g></g></g></svg>