<?xml version="1.0" encoding="UTF-8" standalone="no"?>
<!DOCTYPE svg PUBLIC "-//W3C//DTD SVG 1.1//EN" "http://www.w3.org/Graphics/SVG/1.1/DTD/svg11.dtd">
<svg version="1.1" xmlns="http://www.w3.org/2000/svg" xmlns:xlink="http://www.w3.org/1999/xlink" preserveAspectRatio="xMidYMid meet" viewBox="0 0 640 640" width="640" height="640"><defs><path d="M433.63 73.81L433.64 73.03L433.69 72.25L433.77 71.49L433.88 70.74L434.01 69.99L434.18 69.26L434.37 68.54L434.59 67.82L434.84 67.12L435.12 66.44L435.42 65.77L435.74 65.11L436.09 64.46L436.47 63.83L436.86 63.22L437.28 62.63L437.73 62.05L438.19 61.49L438.67 60.94C438.84 60.76 439.01 60.59 439.18 60.42C439.35 60.25 439.52 60.08 439.7 59.91L440.24 59.43L440.8 58.97L441.38 58.53L441.98 58.11L442.59 57.71L443.22 57.33L443.87 56.98L444.52 56.66L445.2 56.36L445.88 56.08L446.58 55.84L447.29 55.61L448.02 55.42L448.75 55.25L449.5 55.12L450.25 55.01L451.01 54.93L451.79 54.88L452.57 54.87L528.32 54.87L529.1 54.88L529.87 54.93L530.63 55.01L531.39 55.12L532.13 55.25L532.87 55.42L533.59 55.61L534.3 55.84L535 56.08L535.69 56.36L536.36 56.66L537.02 56.98L537.66 57.33L538.29 57.71L538.9 58.11L539.5 58.53L540.08 58.97L540.64 59.43L541.18 59.91L541.71 60.42L542.21 60.94L542.69 61.49L543.16 62.05L543.6 62.63L544.02 63.22L544.42 63.83L544.79 64.46L545.14 65.11L545.47 65.77L545.77 66.44L546.04 67.12L546.29 67.82L546.51 68.54L546.7 69.26L546.87 69.99L547.01 70.74L547.11 71.49L547.19 72.25L547.24 73.03L546.29 73.81L547.26 272.66L623.01 357.88L547.26 357.88L547.26 623.01L378.63 623.01L378.63 622.96L378.65 622.12L378.65 438.18L378.63 437.34L378.58 436.51L378.5 435.68L378.39 434.87L378.25 434.06L378.08 433.27L377.88 432.49L377.65 431.72L377.39 430.97L377.11 430.23L376.8 429.5L376.46 428.79L376.1 428.1L375.72 427.42L375.31 426.76L374.87 426.11L374.42 425.49L373.94 424.88L373.44 424.3L372.92 423.73L372.38 423.19L371.82 422.67L371.24 422.17L370.64 421.69L370.02 421.24L369.39 420.81L368.74 420.4L368.08 420.03L367.4 419.68L366.7 419.35L366 419.05L365.27 418.79L364.54 418.55L363.79 418.34L363.04 418.16L362.27 418.01L361.49 417.9L360.7 417.81L359.9 417.76L359.1 417.74L280.9 417.74L280.1 417.76L279.3 417.81L278.51 417.9L277.73 418.01L276.96 418.16L276.21 418.34L275.46 418.55L274.73 418.79L274 419.05L273.3 419.35L272.6 419.68L271.92 420.03L271.26 420.4L270.61 420.81L269.98 421.24L269.36 421.69L268.76 422.17L268.18 422.67L267.62 423.19L267.08 423.73L266.56 424.3L266.06 424.88L265.58 425.49L265.13 426.11L264.69 426.76L264.28 427.42L263.9 428.1L263.54 428.79L263.2 429.5L262.89 430.23L262.61 430.97L262.35 431.72L262.12 432.49L261.92 433.27L261.75 434.06L261.61 434.87L261.5 435.68L261.42 436.51L261.37 437.34L261.35 438.18L261.35 622.12L261.37 622.96L261.37 623.01L92.74 623.01L92.74 357.88L16.99 357.88L320 16.99L433.63 144.83L433.63 73.81Z" id="ie1xiMrgu"></path></defs><g><g><g><use xlink:href="#ie1xiMrgu" opacity="1" fill="#a98eda" fill-opacity="1"></use></g></g></g></svg>