<?xml version="1.0" encoding="UTF-8" standalone="no"?>
<!DOCTYPE svg PUBLIC "-//W3C//DTD SVG 1.1//EN" "http://www.w3.org/Graphics/SVG/1.1/DTD/svg11.dtd">
<svg version="1.1" xmlns="http://www.w3.org/2000/svg" xmlns:xlink="http://www.w3.org/1999/xlink" preserveAspectRatio="xMidYMid meet" viewBox="0 0 640 640" width="640" height="640"><defs><path d="M318.38 282.44L492.41 450.97L442.94 502.04L268.92 333.52L318.38 282.44Z" id="akdcB9E5O"></path><path d="M612.94 533.23C621.56 541.52 621.83 555.23 613.53 563.85C599.2 578.75 571.22 607.82 556.89 622.71C548.59 631.33 534.88 631.59 526.26 623.3C493.32 591.6 410.12 511.52 377.18 479.82C368.56 471.52 368.3 457.81 376.59 449.19C390.93 434.3 418.9 405.23 433.24 390.34C441.53 381.72 455.25 381.45 463.86 389.75C496.8 421.45 580.01 501.53 612.94 533.23Z" id="aaKqF1E0d"></path><path d="M217.3 24.08L224.76 24.84L232.13 25.89L239.4 27.23L246.56 28.85L253.62 30.74L260.57 32.9L267.4 35.33L274.1 38.01L280.67 40.94L287.1 44.12L293.39 47.54L299.53 51.19L305.51 55.07L311.33 59.17L316.99 63.48L322.47 68.01L327.77 72.74L332.89 77.66L337.81 82.78L342.54 88.08L347.06 93.56L351.38 99.21L355.48 105.03L359.35 111.02L363.01 117.16L366.42 123.44L369.6 129.88L372.54 136.45L375.22 143.15L377.64 149.97L379.81 156.92L381.7 163.98L383.32 171.15L384.66 178.42L385.71 185.79L386.46 193.24L386.92 200.78L387.08 208.4L386.92 216.02L386.46 223.56L385.71 231.02L384.66 238.38L383.32 245.65L381.7 252.82L379.81 259.88L377.64 266.83L375.22 273.65L372.54 280.36L369.6 286.93L366.42 293.36L363.01 299.65L359.35 305.79L355.48 311.77L351.38 317.59L347.06 323.24L342.54 328.73L337.81 334.03L332.89 339.14L327.77 344.07L322.47 348.79L316.99 353.32L311.33 357.63L305.51 361.73L299.53 365.61L293.39 369.26L287.1 372.68L280.67 375.86L274.1 378.79L267.4 381.47L260.57 383.9L253.62 386.06L246.56 387.96L239.4 389.57L232.13 390.91L224.76 391.96L217.3 392.72L209.76 393.18L202.15 393.33L194.53 393.18L186.99 392.72L179.53 391.96L172.16 390.91L164.89 389.57L157.73 387.96L150.67 386.06L143.72 383.9L136.89 381.47L130.19 378.79L123.62 375.86L117.19 372.68L110.9 369.26L104.76 365.61L98.78 361.73L92.96 357.63L87.3 353.32L81.82 348.79L76.52 344.07L71.4 339.14L66.48 334.03L61.75 328.73L57.23 323.24L52.91 317.59L48.81 311.77L44.94 305.79L41.29 299.65L37.87 293.36L34.69 286.93L31.76 280.36L29.07 273.65L26.65 266.83L24.48 259.88L22.59 252.82L20.97 245.65L19.64 238.38L18.58 231.02L17.83 223.56L17.37 216.02L17.21 208.4L17.37 200.78L17.83 193.24L18.58 185.79L19.64 178.42L20.97 171.15L22.59 163.98L24.48 156.92L26.65 149.97L29.07 143.15L31.76 136.45L34.69 129.88L37.87 123.44L41.29 117.16L44.94 111.02L48.81 105.03L52.91 99.21L57.23 93.56L61.75 88.08L66.48 82.78L71.4 77.66L76.52 72.74L81.82 68.01L87.3 63.48L92.96 59.17L98.78 55.07L104.76 51.19L110.9 47.54L117.19 44.12L123.62 40.94L130.19 38.01L136.89 35.33L143.72 32.9L150.67 30.74L157.73 28.85L164.89 27.23L172.16 25.89L179.53 24.84L186.99 24.08L194.53 23.62L202.15 23.47L209.76 23.62L217.3 24.08ZM192.07 85.9L187.12 86.41L182.22 87.11L177.39 87.99L172.62 89.07L167.93 90.33L163.32 91.77L158.78 93.38L154.32 95.16L149.96 97.11L145.68 99.22L141.5 101.49L137.42 103.92L133.45 106.5L129.58 109.22L125.82 112.09L122.18 115.1L118.65 118.24L115.25 121.51L111.98 124.91L108.84 128.43L105.83 132.08L102.97 135.83L100.24 139.7L97.66 143.68L95.24 147.76L92.97 151.94L90.85 156.21L88.9 160.58L87.12 165.03L85.51 169.57L84.07 174.19L82.81 178.88L81.74 183.64L80.85 188.48L80.15 193.37L79.65 198.33L79.34 203.34L79.24 208.4L79.34 213.46L79.65 218.48L80.15 223.43L80.85 228.33L81.74 233.16L82.81 237.92L84.07 242.61L85.51 247.23L87.12 251.77L88.9 256.22L90.85 260.59L92.97 264.86L95.24 269.04L97.66 273.12L100.24 277.1L102.97 280.97L105.83 284.73L108.84 288.37L111.98 291.89L115.25 295.29L118.65 298.56L122.18 301.71L125.82 304.71L129.58 307.58L133.45 310.3L137.42 312.88L141.5 315.31L145.68 317.58L149.96 319.69L154.32 321.64L158.78 323.42L163.32 325.04L167.93 326.47L172.62 327.73L177.39 328.81L182.22 329.7L187.12 330.4L192.07 330.9L197.08 331.2L202.15 331.31L207.21 331.2L212.22 330.9L217.17 330.4L222.07 329.7L226.9 328.81L231.67 327.73L236.36 326.47L240.98 325.04L245.51 323.42L249.97 321.64L254.33 319.69L258.61 317.58L262.79 315.31L266.87 312.88L270.84 310.3L274.71 307.58L278.47 304.71L282.11 301.71L285.64 298.56L289.04 295.29L292.31 291.89L295.45 288.37L298.46 284.73L301.32 280.97L304.05 277.1L306.63 273.12L309.05 269.04L311.32 264.86L313.44 260.59L315.39 256.22L317.17 251.77L318.78 247.23L320.22 242.61L321.48 237.92L322.55 233.16L323.44 228.33L324.14 223.43L324.64 218.48L324.95 213.46L325.05 208.4L324.95 203.34L324.64 198.33L324.14 193.37L323.44 188.48L322.55 183.64L321.48 178.88L320.22 174.19L318.78 169.57L317.17 165.03L315.39 160.58L313.44 156.21L311.32 151.94L309.05 147.76L306.63 143.68L304.05 139.7L301.32 135.83L298.46 132.08L295.45 128.43L292.31 124.91L289.04 121.51L285.64 118.24L282.11 115.1L278.47 112.09L274.71 109.22L270.84 106.5L266.87 103.92L262.79 101.49L258.61 99.22L254.33 97.11L249.97 95.16L245.51 93.38L240.98 91.77L236.36 90.33L231.67 89.07L226.9 87.99L222.07 87.11L217.17 86.41L212.22 85.9L207.21 85.6L202.15 85.5L197.08 85.6L192.07 85.9Z" id="a39C0EmXGB"></path></defs><g><g><g><use xlink:href="#akdcB9E5O" opacity="1" fill="#a98eda" fill-opacity="1"></use></g><g><use xlink:href="#aaKqF1E0d" opacity="1" fill="#a98eda" fill-opacity="1"></use></g><g><use xlink:href="#a39C0EmXGB" opacity="1" fill="#a98eda" fill-opacity="1"></use></g></g></g></svg>