<?xml version="1.0" encoding="UTF-8" standalone="no"?>
<!DOCTYPE svg PUBLIC "-//W3C//DTD SVG 1.1//EN" "http://www.w3.org/Graphics/SVG/1.1/DTD/svg11.dtd">
<svg version="1.1" xmlns="http://www.w3.org/2000/svg" xmlns:xlink="http://www.w3.org/1999/xlink" preserveAspectRatio="xMidYMid meet" viewBox="0 0 640 640" width="640" height="640"><defs><path d="M615.66 84.25C626.7 84.25 635.66 93.2 635.66 104.25C635.66 119.32 635.66 144.52 635.66 159.59C635.66 170.63 626.7 179.59 615.66 179.59C493.39 179.59 146.61 179.59 24.34 179.59C13.3 179.59 4.34 170.63 4.34 159.59C4.34 144.52 4.34 119.32 4.34 104.25C4.34 93.2 13.3 84.25 24.34 84.25C146.61 84.25 493.39 84.25 615.66 84.25Z" id="a3m7V6CuCJ"></path><path d="M615.66 275.5C626.7 275.5 635.66 284.45 635.66 295.5C635.66 310.57 635.66 335.77 635.66 350.84C635.66 361.88 626.7 370.84 615.66 370.84C493.39 370.84 146.61 370.84 24.34 370.84C13.3 370.84 4.34 361.88 4.34 350.84C4.34 335.77 4.34 310.57 4.34 295.5C4.34 284.45 13.3 275.5 24.34 275.5C146.61 275.5 493.39 275.5 615.66 275.5Z" id="b403zHMGjg"></path><path d="M615.66 466.18C626.7 466.18 635.66 475.13 635.66 486.18C635.66 501.24 635.66 526.45 635.66 541.51C635.66 552.56 626.7 561.51 615.66 561.51C493.39 561.51 146.61 561.51 24.34 561.51C13.3 561.51 4.34 552.56 4.34 541.51C4.34 526.45 4.34 501.24 4.34 486.18C4.34 475.13 13.3 466.18 24.34 466.18C146.61 466.18 493.39 466.18 615.66 466.18Z" id="avdG5FMxe"></path></defs><g><g><g><use xlink:href="#a3m7V6CuCJ" opacity="1" fill="#a98eda" fill-opacity="1"></use></g><g><use xlink:href="#b403zHMGjg" opacity="1" fill="#a98eda" fill-opacity="1"></use></g><g><use xlink:href="#avdG5FMxe" opacity="1" fill="#a98eda" fill-opacity="1"></use></g></g></g></svg>