<?xml version="1.0" encoding="UTF-8" standalone="no"?>
<!DOCTYPE svg PUBLIC "-//W3C//DTD SVG 1.1//EN" "http://www.w3.org/Graphics/SVG/1.1/DTD/svg11.dtd">
<svg version="1.1" xmlns="http://www.w3.org/2000/svg" xmlns:xlink="http://www.w3.org/1999/xlink" preserveAspectRatio="xMidYMid meet" viewBox="0 0 640 640" width="640" height="640"><defs><path d="M366.59 17.6L367.17 17.67L367.73 17.78L368.28 17.92L368.81 18.08L369.32 18.28L369.82 18.5L370.31 18.75L370.78 19.02L371.23 19.32L371.68 19.65L372.11 19.99L372.52 20.37L372.93 20.76L373.32 21.18L373.71 21.62L374.08 22.09L374.44 22.57L374.79 23.07L375.13 23.6L375.47 24.14L375.79 24.7L376.11 25.28L376.42 25.87L376.72 26.48L377.02 27.11L377.31 27.75L377.6 28.41L377.87 29.08L378.15 29.77L378.42 30.47L378.69 31.18L378.95 31.9L379.21 32.63L379.47 33.37L379.73 34.13L379.98 34.89L380.24 35.66L380.49 36.44L393.57 85.5L397.68 86.77L406.75 90L415.66 93.56L424.39 97.45L432.94 101.68L433.64 102.05L477.73 76.54L478.46 76.16L479.19 75.8L479.91 75.44L480.62 75.09L481.33 74.75L482.03 74.41L482.73 74.09L483.42 73.78L484.11 73.48L484.79 73.19L485.46 72.91L486.13 72.65L486.78 72.4L487.44 72.16L488.09 71.94L488.73 71.74L489.36 71.56L489.98 71.39L490.6 71.24L491.22 71.12L491.82 71.01L492.42 70.92L493.01 70.86L493.59 70.82L494.16 70.8L494.73 70.81L495.29 70.84L495.84 70.9L496.38 70.98L496.92 71.09L497.45 71.23L497.96 71.4L498.47 71.59L498.97 71.82L499.47 72.08L499.95 72.37L500.43 72.69L500.89 73.05L501.35 73.44L501.79 73.86L565.96 138.03L566.38 138.47L566.78 138.93L567.14 139.41L567.47 139.89L567.77 140.38L568.04 140.88L568.28 141.4L568.49 141.92L568.67 142.45L568.83 143L568.95 143.55L569.05 144.11L569.13 144.68L569.18 145.25L569.2 145.84L569.2 146.43L569.17 147.03L569.12 147.63L569.05 148.24L568.96 148.86L568.84 149.48L568.71 150.11L568.55 150.75L568.37 151.39L568.18 152.04L567.96 152.68L567.73 153.34L567.48 154L567.21 154.66L566.92 155.32L566.62 155.99L566.3 156.66L565.97 157.33L565.63 158.01L565.27 158.68L564.9 159.36L564.51 160.04L564.11 160.72L563.7 161.4L563.28 162.09L537.8 206.1L538.32 207.06L542.55 215.61L546.44 224.34L550 233.25L553.23 242.32L554.5 246.43L603.56 259.51L604.34 259.69L605.11 259.88L605.87 260.08L606.63 260.29L607.37 260.51L608.1 260.73L608.82 260.97L609.53 261.21L610.23 261.46L610.92 261.72L611.59 261.99L612.25 262.26L612.89 262.55L613.52 262.85L614.13 263.15L614.72 263.47L615.3 263.8L615.86 264.14L616.4 264.49L616.93 264.85L617.43 265.22L617.91 265.6L618.38 265.99L618.82 266.4L619.24 266.81L619.63 267.24L620.01 267.69L620.35 268.14L620.68 268.61L620.98 269.09L621.25 269.58L621.5 270.08L621.72 270.6L621.92 271.14L622.08 271.68L622.22 272.24L622.33 272.82L622.4 273.41L622.45 274.01L622.47 274.63L622.47 365.37L622.45 365.99L622.4 366.59L622.33 367.17L622.22 367.73L622.08 368.28L621.92 368.81L621.72 369.32L621.5 369.82L621.25 370.31L620.98 370.78L620.68 371.23L620.35 371.68L620.01 372.11L619.63 372.52L619.24 372.93L618.82 373.32L618.38 373.71L617.91 374.08L617.43 374.44L616.93 374.79L616.4 375.13L615.86 375.47L615.3 375.79L614.72 376.11L614.13 376.42L613.52 376.72L612.89 377.02L612.25 377.31L611.59 377.6L610.92 377.87L610.23 378.15L609.53 378.42L608.82 378.69L608.1 378.95L607.37 379.21L606.63 379.47L605.87 379.73L605.11 379.98L604.34 380.24L603.56 380.49L554.5 393.57L553.23 397.68L550 406.75L546.44 415.66L542.55 424.39L538.32 432.94L537.85 433.8L563.28 477.73L563.7 478.42L564.11 479.1L564.51 479.78L564.9 480.46L565.27 481.13L565.63 481.81L565.97 482.49L566.3 483.16L566.62 483.83L566.92 484.5L567.21 485.16L567.48 485.82L567.73 486.48L567.96 487.13L568.18 487.78L568.37 488.43L568.55 489.07L568.71 489.7L568.84 490.33L568.96 490.96L569.05 491.58L569.12 492.19L569.17 492.79L569.2 493.39L569.2 493.98L569.18 494.57L569.13 495.14L569.05 495.71L568.95 496.27L568.83 496.82L568.67 497.37L568.49 497.9L568.28 498.42L568.04 498.94L567.77 499.44L567.47 499.93L567.14 500.41L566.78 500.89L566.38 501.35L565.96 501.79L501.79 565.96L501.35 566.38L500.89 566.77L500.43 567.13L499.95 567.45L499.47 567.74L498.97 568L498.47 568.23L497.96 568.42L497.45 568.59L496.92 568.73L496.38 568.84L495.84 568.92L495.29 568.98L494.73 569.01L494.16 569.02L493.59 569L493.01 568.96L492.42 568.9L491.82 568.81L491.22 568.7L490.6 568.57L489.98 568.43L489.36 568.26L488.73 568.08L488.09 567.88L487.44 567.66L486.78 567.42L486.13 567.17L485.46 566.91L484.79 566.63L484.11 566.34L483.42 566.04L482.73 565.73L482.03 565.4L481.33 565.07L480.62 564.73L479.91 564.38L479.19 564.02L478.46 563.65L477.73 563.28L433.8 537.85L432.94 538.32L424.39 542.55L415.66 546.44L406.75 550L397.68 553.23L393.57 554.5L380.49 603.56L380.24 604.34L379.98 605.11L379.73 605.87L379.47 606.63L379.21 607.37L378.95 608.1L378.69 608.82L378.42 609.53L378.15 610.23L377.87 610.92L377.6 611.59L377.31 612.25L377.02 612.89L376.72 613.52L376.42 614.13L376.11 614.72L375.79 615.3L375.47 615.86L375.13 616.4L374.79 616.93L374.44 617.43L374.08 617.91L373.71 618.38L373.32 618.82L372.93 619.24L372.52 619.63L372.11 620.01L371.68 620.35L371.23 620.68L370.78 620.98L370.31 621.25L369.82 621.5L369.32 621.72L368.81 621.92L368.28 622.08L367.73 622.22L367.17 622.33L366.59 622.4L365.99 622.45L365.37 622.47L274.63 622.47L274.01 622.45L273.41 622.4L272.82 622.33L272.24 622.22L271.68 622.08L271.14 621.92L270.6 621.72L270.08 621.5L269.58 621.25L269.09 620.98L268.61 620.68L268.14 620.35L267.69 620.01L267.24 619.63L266.81 619.24L266.4 618.82L265.99 618.38L265.6 617.91L265.22 617.43L264.85 616.93L264.49 616.4L264.14 615.86L263.8 615.3L263.47 614.72L263.15 614.13L262.85 613.52L262.55 612.89L262.26 612.25L261.99 611.59L261.72 610.92L261.46 610.23L261.21 609.53L260.97 608.82L260.73 608.1L260.51 607.37L260.29 606.63L260.08 605.87L259.88 605.11L259.69 604.34L259.51 603.56L246.43 554.5L242.32 553.23L233.25 550L224.34 546.44L215.61 542.55L207.06 538.32L206.03 537.76L162.27 563.1L161.58 563.52L160.9 563.93L160.22 564.33L159.54 564.71L158.87 565.09L158.19 565.45L157.51 565.79L156.84 566.12L156.17 566.44L155.5 566.74L154.84 567.03L154.18 567.3L153.52 567.55L152.87 567.78L152.22 568L151.57 568.19L150.93 568.37L150.3 568.53L149.67 568.66L149.04 568.78L148.42 568.87L147.81 568.94L147.21 568.99L146.61 569.02L146.02 569.02L145.43 569L144.86 568.95L144.29 568.87L143.73 568.77L143.18 568.65L142.63 568.49L142.1 568.31L141.58 568.1L141.06 567.86L140.56 567.59L140.07 567.29L139.59 566.96L139.11 566.6L138.65 566.2L138.21 565.78L74.04 501.61L73.62 501.17L73.23 500.71L72.87 500.24L72.55 499.77L72.26 499.29L72 498.79L71.77 498.29L71.58 497.78L71.41 497.27L71.27 496.74L71.16 496.2L71.08 495.66L71.02 495.11L70.99 494.55L70.98 493.98L71 493.41L71.04 492.83L71.1 492.24L71.19 491.64L71.3 491.04L71.43 490.42L71.57 489.8L71.74 489.18L71.92 488.54L72.12 487.9L72.34 487.26L72.58 486.6L72.83 485.94L73.09 485.28L73.37 484.61L73.66 483.93L73.96 483.24L74.27 482.55L74.6 481.85L74.93 481.15L75.27 480.44L75.62 479.73L75.98 479.01L76.35 478.28L76.72 477.55L102.1 433.72L101.68 432.94L97.45 424.39L93.56 415.66L90 406.75L86.77 397.68L85.5 393.57L36.44 380.49L35.66 380.24L34.89 379.98L34.13 379.73L33.37 379.47L32.63 379.21L31.9 378.95L31.18 378.69L30.47 378.42L29.77 378.15L29.08 377.87L28.41 377.6L27.75 377.31L27.11 377.02L26.48 376.72L25.87 376.42L25.28 376.11L24.7 375.79L24.14 375.47L23.6 375.13L23.07 374.79L22.57 374.44L22.09 374.08L21.62 373.71L21.18 373.32L20.76 372.93L20.37 372.52L19.99 372.11L19.65 371.68L19.32 371.23L19.02 370.78L18.75 370.31L18.5 369.82L18.28 369.32L18.08 368.81L17.92 368.28L17.78 367.73L17.67 367.17L17.6 366.59L17.55 365.99L17.53 365.37L17.53 274.63L17.55 274.01L17.6 273.41L17.67 272.82L17.78 272.24L17.92 271.68L18.08 271.14L18.28 270.6L18.5 270.08L18.75 269.58L19.02 269.09L19.32 268.61L19.65 268.14L19.99 267.69L20.37 267.24L20.76 266.81L21.18 266.4L21.62 265.99L22.09 265.6L22.57 265.22L23.07 264.85L23.6 264.49L24.14 264.14L24.7 263.8L25.28 263.47L25.87 263.15L26.48 262.85L27.11 262.55L27.75 262.26L28.41 261.99L29.08 261.72L29.77 261.46L30.47 261.21L31.18 260.97L31.9 260.73L32.63 260.51L33.37 260.29L34.13 260.08L34.89 259.88L35.66 259.69L36.44 259.51L85.5 246.43L86.77 242.32L90 233.25L93.56 224.34L97.45 215.61L101.68 207.06L102.15 206.2L76.72 162.27L76.35 161.54L75.98 160.81L75.62 160.09L75.27 159.38L74.93 158.67L74.6 157.97L74.27 157.27L73.96 156.58L73.66 155.89L73.37 155.21L73.09 154.54L72.83 153.87L72.58 153.22L72.34 152.56L72.12 151.91L71.92 151.27L71.74 150.64L71.57 150.02L71.43 149.4L71.3 148.78L71.19 148.18L71.1 147.58L71.04 146.99L71 146.41L70.98 145.84L70.99 145.27L71.02 144.71L71.08 144.16L71.16 143.62L71.27 143.08L71.41 142.55L71.58 142.04L71.77 141.53L72 141.03L72.26 140.53L72.55 140.05L72.87 139.57L73.23 139.11L73.62 138.65L74.04 138.21L138.21 74.04L138.65 73.62L139.11 73.22L139.59 72.86L140.07 72.53L140.56 72.23L141.06 71.96L141.58 71.72L142.1 71.51L142.63 71.33L143.18 71.17L143.73 71.05L144.29 70.95L144.86 70.87L145.43 70.82L146.02 70.8L146.61 70.8L147.21 70.83L147.81 70.88L148.42 70.95L149.04 71.04L149.67 71.16L150.3 71.29L150.93 71.45L151.57 71.63L152.22 71.82L152.87 72.04L153.52 72.27L154.18 72.52L154.84 72.79L155.5 73.08L156.17 73.38L156.84 73.7L157.51 74.03L158.19 74.37L158.87 74.73L159.54 75.1L160.22 75.49L160.9 75.89L161.58 76.3L162.27 76.72L206.2 102.15L207.06 101.68L215.61 97.45L224.34 93.56L233.25 90L242.32 86.77L246.43 85.5L259.51 36.44L259.69 35.66L259.88 34.89L260.08 34.13L260.29 33.37L260.51 32.63L260.73 31.9L260.97 31.18L261.21 30.47L261.46 29.77L261.72 29.08L261.99 28.41L262.26 27.75L262.55 27.11L262.85 26.48L263.15 25.87L263.47 25.28L263.8 24.7L264.14 24.14L264.49 23.6L264.85 23.07L265.22 22.57L265.6 22.09L265.99 21.62L266.4 21.18L266.81 20.76L267.24 20.37L267.69 19.99L268.14 19.65L268.61 19.32L269.09 19.02L269.58 18.75L270.08 18.5L270.6 18.28L271.14 18.08L271.68 17.92L272.24 17.78L272.82 17.67L273.41 17.6L274.01 17.55L274.63 17.53L365.37 17.53L365.99 17.55L366.59 17.6ZM309.15 188.11L303.81 188.65L298.54 189.4L293.33 190.36L288.2 191.52L283.15 192.87L278.17 194.42L273.29 196.15L268.49 198.07L263.79 200.17L259.19 202.44L254.69 204.89L250.29 207.5L246.01 210.27L241.85 213.2L237.8 216.29L233.88 219.52L230.09 222.91L226.43 226.43L222.91 230.09L219.52 233.88L216.29 237.8L213.2 241.85L210.27 246.01L207.5 250.29L204.89 254.69L202.44 259.19L200.17 263.79L198.07 268.49L196.15 273.29L194.42 278.17L192.87 283.15L191.52 288.2L190.36 293.33L189.4 298.54L188.65 303.81L188.11 309.15L187.78 314.55L187.67 320L187.78 325.45L188.11 330.85L188.65 336.19L189.4 341.46L190.36 346.67L191.52 351.8L192.87 356.85L194.42 361.83L196.15 366.71L198.07 371.51L200.17 376.21L202.44 380.81L204.89 385.31L207.5 389.71L210.27 393.99L213.2 398.15L216.29 402.2L219.52 406.12L222.91 409.91L226.43 413.57L230.09 417.09L233.88 420.48L237.8 423.71L241.85 426.8L246.01 429.73L250.29 432.5L254.69 435.11L259.19 437.56L263.79 439.83L268.49 441.93L273.29 443.85L278.17 445.58L283.15 447.13L288.2 448.48L293.33 449.64L298.54 450.6L303.81 451.35L309.15 451.89L314.55 452.22L320 452.33L325.45 452.22L330.85 451.89L336.19 451.35L341.46 450.6L346.67 449.64L351.8 448.48L356.85 447.13L361.83 445.58L366.71 443.85L371.51 441.93L376.21 439.83L380.81 437.56L385.31 435.11L389.71 432.5L393.99 429.73L398.15 426.8L402.2 423.71L406.12 420.48L409.91 417.09L413.57 413.57L417.09 409.91L420.48 406.12L423.71 402.2L426.8 398.15L429.73 393.99L432.5 389.71L435.11 385.31L437.56 380.81L439.83 376.21L441.93 371.51L443.85 366.71L445.58 361.83L447.13 356.85L448.48 351.8L449.64 346.67L450.6 341.46L451.35 336.19L451.89 330.85L452.22 325.45L452.33 320L452.22 314.55L451.89 309.15L451.35 303.81L450.6 298.54L449.64 293.33L448.48 288.2L447.13 283.15L445.58 278.17L443.85 273.29L441.93 268.49L439.83 263.79L437.56 259.19L435.11 254.69L432.5 250.29L429.73 246.01L426.8 241.85L423.71 237.8L420.48 233.88L417.09 230.09L413.57 226.43L409.91 222.91L406.12 219.52L402.2 216.29L398.15 213.2L393.99 210.27L389.71 207.5L385.31 204.89L380.81 202.44L376.21 200.17L371.51 198.07L366.71 196.15L361.83 194.42L356.85 192.87L351.8 191.52L346.67 190.36L341.46 189.4L336.19 188.65L330.85 188.11L325.45 187.78L320 187.67L314.55 187.78L309.15 188.11Z" id="a4cimltM2"></path></defs><g><g><g><use xlink:href="#a4cimltM2" opacity="1" fill="#a98eda" fill-opacity="1"></use></g></g></g></svg>