<?xml version="1.0" encoding="UTF-8" standalone="no"?>
<!DOCTYPE svg PUBLIC "-//W3C//DTD SVG 1.1//EN" "http://www.w3.org/Graphics/SVG/1.1/DTD/svg11.dtd">
<svg version="1.1" xmlns="http://www.w3.org/2000/svg" xmlns:xlink="http://www.w3.org/1999/xlink" preserveAspectRatio="xMidYMid meet" viewBox="0 0 640 640" width="640" height="640"><defs><path d="M426.82 201.11C426.82 245.17 418.8 292.98 396.55 328.2C374.31 363.42 337.84 386.05 303.92 386.05C272.38 386.05 229.81 362.38 208.04 328.2C182.99 288.87 181.01 235.62 181.01 188.48C181.01 100.36 236.09 66.72 303.92 66.72C371.75 66.72 426.82 112.99 426.82 201.11Z" id="b1ti3K9WHn"></path><path d="M377.43 342.4C378.58 405.57 392.36 397.53 417.64 412.47C442.91 427.4 501.49 457.26 535.95 481.39C558.92 497.47 570.02 532.69 569.26 587.06C212.41 589.36 33.99 589.36 33.99 587.06C29.39 513.55 59.26 487.13 90.27 466.45C121.28 445.78 174.12 420.51 200.54 405.57C218.15 395.62 227.34 377.62 228.11 351.59L235 338.95C329.19 299.13 376.67 300.28 377.43 342.4Z" id="a4BYKLVZ9V"></path></defs><g><g><g></g><g><use xlink:href="#b1ti3K9WHn" opacity="1" fill="#a98eda" fill-opacity="1"></use></g><g><use xlink:href="#a4BYKLVZ9V" opacity="1" fill="#a98eda" fill-opacity="1"></use></g></g></g></svg>